# xmcd
#
# Track frame offsets:
#	150
#	18608
#	37066
#	50324
#	63633
#	81341
#	101449
#	119306
#	135664
#	150521
#	166830
#	183037
#	197048
#	214148
#	231556
#	249593
#	268382
#	286689
#	302937
#	320945
#	337056
#
# Disc length: 4708 seconds
#
# Revision: 0
# Processed by: cddbd v1.5.1PL0 Copyright (c) Steve Scherf et al.
# Submitted via: EasyCDDAExtractor 4.6.9.1
#
DISCID=3e126215
DTITLE=Shania Twain - Greatest Hits
DYEAR=2004
DGENRE=Country
TTITLE0=Forever And For Always
TTITLE1=I'm Gonna Getcha Good
TTITLE2=Up!
TTITLE3=Come On Over
TTITLE4=Man! I Feel Like A Woman!
TTITLE5=That Don't Impress Me Much
TTITLE6=From This Moment On
TTITLE7=Honey, I'm Home
TTITLE8=You're Still The One
TTITLE9=Don't Be Stupid (You Know I Love You)
TTITLE10=Love Gets Me Every Time
TTITLE11=No One Needs To Know
TTITLE12=You Win My Love
TTITLE13=(If You're Not In It For Love) I'm Outta Here
TTITLE14=The Woman In Me (Needs The Man In You)
TTITLE15=Any Man Of Mine
TTITLE16=Whose Bed Have Your Boots Been Under?
TTITLE17=Party For Two (w-Mark McGrath)
TTITLE18=Don't!
TTITLE19=Party For Two (w-Billy Currington)
TTITLE20=I Ain't No Quitter
EXTD=
EXTT0=
EXTT1=
EXTT2=
EXTT3=
EXTT4=
EXTT5=
EXTT6=
EXTT7=
EXTT8=
EXTT9=
EXTT10=
EXTT11=
EXTT12=
EXTT13=
EXTT14=
EXTT15=
EXTT16=
EXTT17=
EXTT18=
EXTT19=
EXTT20=
PLAYORDER=
